<svg width="32" height="32" viewBox="0 0 32 32" fill="none" xmlns="http://www.w3.org/2000/svg">
  <path d="M6 10C6 8.89543 6.89543 8 8 8H20C21.1046 8 22 8.89543 22 10V18C22 21.3137 19.3137 24 16 24H12C8.68629 24 6 21.3137 6 18V10Z" fill="#0891b2"/>
  <path d="M22 12H24C25.1046 12 26 12.8954 26 14V16C26 17.1046 25.1046 18 24 18H22V12Z" fill="#0891b2"/>
  <path d="M8 6C8 5.44772 8.44772 5 9 5H19C19.5523 5 20 5.44772 20 6V8H8V6Z" fill="#67e8f9"/>
  <circle cx="10" cy="14" r="1" fill="#ffffff" opacity="0.7"/>
  <circle cx="14" cy="16" r="1" fill="#ffffff" opacity="0.7"/>
  <circle cx="18" cy="14" r="1" fill="#ffffff" opacity="0.7"/>
  <path d="M10 26H18C18.5523 26 19 26.4477 19 27C19 27.5523 18.5523 28 18 28H10C9.44772 28 9 27.5523 9 27C9 26.4477 9.44772 26 10 26Z" fill="#0891b2"/>
</svg>